<?xml version="1.0" standalone="no"?>
<!DOCTYPE svg PUBLIC "-//W3C//DTD SVG 20010904//EN"
 "http://www.w3.org/TR/2001/REC-SVG-20010904/DTD/svg10.dtd">
<svg version="1.0" xmlns="http://www.w3.org/2000/svg"
 width="512.000000pt" height="512.000000pt" viewBox="0 0 512.000000 512.000000"
 preserveAspectRatio="xMidYMid meet">

<g transform="translate(0.000000,512.000000) scale(0.100000,-0.100000)"
fill="#000000" stroke="none">
<path d="M1610 4220 c-503 -291 -925 -540 -937 -555 l-23 -26 0 -1079 0 -1080
28 -29 c15 -17 437 -267 939 -556 680 -392 919 -525 943 -525 24 0 263 133
943 525 502 289 924 539 940 556 l27 29 0 1080 0 1080 -27 29 c-16 16 -438
266 -940 555 -714 412 -919 526 -945 526 -25 -1 -250 -126 -948 -530z m1739
-300 c571 -330 756 -442 767 -462 21 -40 21 -1756 0 -1796 -21 -41 -1506 -897
-1556 -897 -50 0 -1535 856 -1556 897 -21 40 -21 1756 0 1796 11 20 197 133
772 465 620 358 765 438 789 435 18 -2 354 -190 784 -438z"/>
<path d="M1820 3831 l-725 -419 -3 -496 c-1 -273 -1 -496 1 -496 3 0 98 54
213 121 115 66 221 127 235 134 25 13 38 7 275 -130 l249 -144 5 292 5 291
243 139 242 140 223 -128 c122 -71 232 -135 245 -143 l22 -14 0 283 0 284 184
105 c138 78 181 108 173 116 -22 21 -834 484 -848 484 -8 0 -340 -189 -739
-419z"/>
<path d="M3540 2559 l0 -1131 63 35 c34 20 143 82 242 139 l180 104 2 855 3
854 -239 138 c-131 75 -241 137 -245 137 -3 0 -6 -509 -6 -1131z"/>
<path d="M2560 2001 c0 -622 3 -1131 6 -1131 4 0 114 62 245 137 l239 138 0
851 0 852 -211 122 c-116 67 -226 131 -245 142 l-34 20 0 -1131z"/>
<path d="M1582 1985 l3 -567 185 -107 c102 -59 211 -122 243 -140 l57 -32 0
564 0 564 -222 128 c-123 71 -233 135 -246 143 l-22 14 2 -567z"/>
</g>
</svg>
